REM DIRINDEX 1\2\6,1\2\7,1\2\8,1\2\9,1\3\10,1\3\11,1\4\12,1\4\13,1\4\14,1\5\15,1\5\16,1\5\17
REM DIRNAME folder01,folder02,folder03,folder04,folder05,folder06,folder07,folder08,folder09,folder10,folder11,folder12,folder13,folder14,folder15,folder16,folder17
TITLE ""
FILE "1900_2_sec15_1401_1416.mp3" MP3
  TRACK 01 AUDIO
    TITLE "0:"
    INDEX 01 00:00:00
  TRACK 02 AUDIO
    TITLE "12:cjc020_4944"
    INDEX 01 00:03:23
  TRACK 03 AUDIO
    TITLE "0:"
    INDEX 01 00:05:03
  TRACK 04 AUDIO
    TITLE "12:cjc020_4945"
    INDEX 01 00:05:46
  TRACK 05 AUDIO
    TITLE "0:"
    INDEX 01 00:06:69
  TRACK 06 AUDIO
    TITLE "13:cjc020_4946"
    INDEX 01 00:07:70
  TRACK 07 AUDIO
    TITLE "0:"
    INDEX 01 00:09:10
  TRACK 08 AUDIO
    TITLE "14:cjc020_4947"
    INDEX 01 00:09:12
  TRACK 09 AUDIO
    TITLE "0:"
    INDEX 01 00:10:41
  TRACK 10 AUDIO
    TITLE "13:cjc020_4948"
    INDEX 01 00:11:19
  TRACK 11 AUDIO
    TITLE "0:"
    INDEX 01 00:12:38
  TRACK 12 AUDIO
    TITLE "14:cjc020_4949"
    INDEX 01 00:12:40
  TRACK 13 AUDIO
    TITLE "0:"
    INDEX 01 00:16:18
  TRACK 14 AUDIO
    TITLE "13:cjc020_4950"
    INDEX 01 00:16:71
  TRACK 15 AUDIO
    TITLE "0:"
    INDEX 01 00:18:11
  TRACK 16 AUDIO
    TITLE "14:cjc020_4951"
    INDEX 01 00:18:15
  TRACK 17 AUDIO
    TITLE "0:"
    INDEX 01 00:21:06
  TRACK 18 AUDIO
    TITLE "13:cjc020_4952"
    INDEX 01 00:21:60
  TRACK 19 AUDIO
    TITLE "0:"
    INDEX 01 00:22:66
  TRACK 20 AUDIO
    TITLE "14:cjc020_4953"
    INDEX 01 00:22:72
  TRACK 21 AUDIO
    TITLE "0:"
    INDEX 01 00:26:24
  TRACK 22 AUDIO
    TITLE "13:cjc020_4954"
    INDEX 01 00:27:04
  TRACK 23 AUDIO
    TITLE "0:"
    INDEX 01 00:28:12
  TRACK 24 AUDIO
    TITLE "14:cjc020_4955"
    INDEX 01 00:28:15
  TRACK 25 AUDIO
    TITLE "0:"
    INDEX 01 00:30:57
  TRACK 26 AUDIO
    TITLE "13:cjc020_4956"
    INDEX 01 00:31:39
  TRACK 27 AUDIO
    TITLE "0:"
    INDEX 01 00:32:41
  TRACK 28 AUDIO
    TITLE "14:cjc020_4957"
    INDEX 01 00:32:47
  TRACK 29 AUDIO
    TITLE "0:"
    INDEX 01 00:34:57
  TRACK 30 AUDIO
    TITLE "13:cjc020_4958"
    INDEX 01 00:35:37
  TRACK 31 AUDIO
    TITLE "0:"
    INDEX 01 00:36:48
  TRACK 32 AUDIO
    TITLE "14:cjc020_4959"
    INDEX 01 00:36:50
  TRACK 33 AUDIO
    TITLE "0:"
    INDEX 01 00:40:03
  TRACK 34 AUDIO
    TITLE "13:cjc020_4960"
    INDEX 01 00:40:60
  TRACK 35 AUDIO
    TITLE "0:"
    INDEX 01 00:41:57
  TRACK 36 AUDIO
    TITLE "14:cjc020_4961"
    INDEX 01 00:41:59
  TRACK 37 AUDIO
    TITLE "0:"
    INDEX 01 00:44:44
  TRACK 38 AUDIO
    TITLE "13:cjc020_4962"
    INDEX 01 00:45:26
  TRACK 39 AUDIO
    TITLE "0:"
    INDEX 01 00:46:35
  TRACK 40 AUDIO
    TITLE "14:cjc020_4963"
    INDEX 01 00:46:37
  TRACK 41 AUDIO
    TITLE "0:"
    INDEX 01 00:48:71
  TRACK 42 AUDIO
    TITLE "13:cjc020_4964"
    INDEX 01 00:49:49
  TRACK 43 AUDIO
    TITLE "0:"
    INDEX 01 00:50:60
  TRACK 44 AUDIO
    TITLE "14:cjc020_4965"
    INDEX 01 00:50:62
  TRACK 45 AUDIO
    TITLE "0:"
    INDEX 01 00:51:56
  TRACK 46 AUDIO
    TITLE "13:cjc020_4966"
    INDEX 01 00:52:37
  TRACK 47 AUDIO
    TITLE "0:"
    INDEX 01 00:53:39
  TRACK 48 AUDIO
    TITLE "14:cjc020_4967"
    INDEX 01 00:53:45
  TRACK 49 AUDIO
    TITLE "0:"
    INDEX 01 00:55:71
  TRACK 50 AUDIO
    TITLE "13:cjc020_4968"
    INDEX 01 00:56:51
  TRACK 51 AUDIO
    TITLE "0:"
    INDEX 01 00:57:52
  TRACK 52 AUDIO
    TITLE "14:cjc020_4969"
    INDEX 01 00:57:54
  TRACK 53 AUDIO
    TITLE "0:"
    INDEX 01 01:00:19
  TRACK 54 AUDIO
    TITLE "13:cjc020_4970"
    INDEX 01 01:00:74
  TRACK 55 AUDIO
    TITLE "0:"
    INDEX 01 01:02:06
  TRACK 56 AUDIO
    TITLE "14:cjc020_4971"
    INDEX 01 01:02:08
  TRACK 57 AUDIO
    TITLE "0:"
    INDEX 01 01:04:47
  TRACK 58 AUDIO
    TITLE "13:cjc020_4972"
    INDEX 01 01:05:26
  TRACK 59 AUDIO
    TITLE "0:"
    INDEX 01 01:06:34
  TRACK 60 AUDIO
    TITLE "14:cjc020_4973"
    INDEX 01 01:06:38
  TRACK 61 AUDIO
    TITLE "0:"
    INDEX 01 01:08:01
  TRACK 62 AUDIO
    TITLE "13:cjc020_4974"
    INDEX 01 01:08:56
  TRACK 63 AUDIO
    TITLE "0:"
    INDEX 01 01:09:59
  TRACK 64 AUDIO
    TITLE "14:cjc020_4975"
    INDEX 01 01:09:63
  TRACK 65 AUDIO
    TITLE "0:"
    INDEX 01 01:11:13
  TRACK 66 AUDIO
    TITLE "13:cjc020_4976"
    INDEX 01 01:11:66
  TRACK 67 AUDIO
    TITLE "0:"
    INDEX 01 01:13:08
  TRACK 68 AUDIO
    TITLE "14:cjc020_4977"
    INDEX 01 01:13:12
  TRACK 69 AUDIO
    TITLE "0:"
    INDEX 01 01:14:47
